<svg width="1024" height="1024" viewBox="0 0 1024 1024" fill="none" xmlns="http://www.w3.org/2000/svg" role="img" aria-labelledby="title desc">
  <title id="title">RustyCore mark</title>
  <desc id="desc">A rust colored forged core emblem with a steel ring, subtle circuitry, and an icy blue center.</desc>
  <defs>
    <radialGradient id="coreGlow" cx="0" cy="0" r="1" gradientUnits="userSpaceOnUse" gradientTransform="translate(512 512) rotate(90) scale(214)">
      <stop offset="0" stop-color="#EAFBFF"/>
      <stop offset="0.36" stop-color="#77D9F2"/>
      <stop offset="0.72" stop-color="#1E7E9A"/>
      <stop offset="1" stop-color="#0D2F3B"/>
    </radialGradient>
    <linearGradient id="rustFace" x1="273" y1="184" x2="747" y2="843" gradientUnits="userSpaceOnUse">
      <stop offset="0" stop-color="#D87935"/>
      <stop offset="0.46" stop-color="#A94D26"/>
      <stop offset="1" stop-color="#54291F"/>
    </linearGradient>
    <linearGradient id="steelEdge" x1="168" y1="150" x2="853" y2="870" gradientUnits="userSpaceOnUse">
      <stop offset="0" stop-color="#A9B0B1"/>
      <stop offset="0.31" stop-color="#4F585C"/>
      <stop offset="0.68" stop-color="#22282C"/>
      <stop offset="1" stop-color="#788286"/>
    </linearGradient>
    <filter id="softShadow" x="89" y="99" width="846" height="850" filterUnits="userSpaceOnUse" color-interpolation-filters="sRGB">
      <feFlood flood-opacity="0" result="BackgroundImageFix"/>
      <feColorMatrix in="SourceAlpha" type="matrix" values="0 0 0 0 0 0 0 0 0 0 0 0 0 0 0 0 0 0 127 0" result="hardAlpha"/>
      <feOffset dy="22"/>
      <feGaussianBlur stdDeviation="30"/>
      <feComposite in2="hardAlpha" operator="out"/>
      <feColorMatrix type="matrix" values="0 0 0 0 0.035 0 0 0 0 0.039 0 0 0 0 0.043 0 0 0 0.46 0"/>
      <feBlend mode="normal" in2="BackgroundImageFix" result="effect1_dropShadow"/>
      <feBlend mode="normal" in="SourceGraphic" in2="effect1_dropShadow" result="shape"/>
    </filter>
  </defs>

  <rect width="1024" height="1024" rx="224" fill="#11161A"/>
  <g filter="url(#softShadow)">
    <path d="M512 113L824 294V655L512 835L200 655V294L512 113Z" fill="url(#steelEdge)"/>
    <path d="M512 174L771 324V624L512 774L253 624V324L512 174Z" fill="url(#rustFace)"/>
    <path d="M512 174L771 324V624L512 774L253 624V324L512 174Z" stroke="#F0A35D" stroke-opacity="0.28" stroke-width="12"/>
    <path d="M512 237L716 356V592L512 710L308 592V356L512 237Z" fill="#171E22" stroke="#0B1114" stroke-width="16"/>
    <circle cx="512" cy="512" r="178" fill="#20282D" stroke="#859196" stroke-width="18"/>
    <circle cx="512" cy="512" r="118" fill="url(#coreGlow)" stroke="#D8F6FF" stroke-opacity="0.62" stroke-width="10"/>

    <path d="M512 298V383" stroke="#D87935" stroke-width="24" stroke-linecap="round"/>
    <path d="M512 641V726" stroke="#D87935" stroke-width="24" stroke-linecap="round"/>
    <path d="M327 405L400 448" stroke="#D87935" stroke-width="24" stroke-linecap="round"/>
    <path d="M624 576L697 619" stroke="#D87935" stroke-width="24" stroke-linecap="round"/>
    <path d="M327 619L400 576" stroke="#D87935" stroke-width="24" stroke-linecap="round"/>
    <path d="M624 448L697 405" stroke="#D87935" stroke-width="24" stroke-linecap="round"/>

    <path d="M424 512H312" stroke="#8FA0A7" stroke-width="18" stroke-linecap="round"/>
    <path d="M712 512H600" stroke="#8FA0A7" stroke-width="18" stroke-linecap="round"/>
    <path d="M512 424V312" stroke="#8FA0A7" stroke-width="18" stroke-linecap="round"/>
    <path d="M512 712V600" stroke="#8FA0A7" stroke-width="18" stroke-linecap="round"/>

    <circle cx="312" cy="512" r="19" fill="#77D9F2"/>
    <circle cx="712" cy="512" r="19" fill="#77D9F2"/>
    <circle cx="512" cy="312" r="19" fill="#77D9F2"/>
    <circle cx="512" cy="712" r="19" fill="#77D9F2"/>

    <path d="M512 432L582 472V552L512 592L442 552V472L512 432Z" fill="#10171B" fill-opacity="0.64" stroke="#BDF4FF" stroke-width="8"/>
    <path d="M512 470L548 491V533L512 554L476 533V491L512 470Z" fill="#EAFBFF"/>

    <g transform="translate(642 258) rotate(24)" aria-label="red rust claw accent">
      <path d="M52 154C20 126 8 84 24 48C38 17 70 0 102 4C82 31 78 61 94 82C110 102 139 105 168 90C163 125 139 154 104 166C84 173 66 170 52 154Z" fill="#C92A2A" stroke="#4A1414" stroke-width="12" stroke-linejoin="round"/>
      <path d="M102 4C137 6 169 31 178 67C146 55 116 61 99 84C84 105 88 133 104 166" stroke="#F06A4F" stroke-width="11" stroke-linecap="round"/>
      <path d="M46 128C59 145 79 151 104 142" stroke="#6F1D1D" stroke-width="10" stroke-linecap="round"/>
    </g>
  </g>
</svg>
